<svg xmlns="http://www.w3.org/2000/svg" viewBox="0 0 400 400" width="400" height="400">
  <defs>
    <linearGradient id="bg8" x1="0" y1="0" x2="1" y2="1">
      <stop offset="0%" stop-color="#0a0a2e"/>
      <stop offset="100%" stop-color="#0a1e2e"/>
    </linearGradient>
    <linearGradient id="clothg" x1="0" y1="0" x2="1" y2="1">
      <stop offset="0%" stop-color="#26C6DA"/>
      <stop offset="100%" stop-color="#00ACC1"/>
    </linearGradient>
    <filter id="shadow8"><feDropShadow dx="0" dy="6" stdDeviation="10" flood-color="#000" flood-opacity="0.4"/></filter>
  </defs>
  <rect width="400" height="400" rx="20" fill="url(#bg8)"/>
  <g filter="url(#shadow8)">
    <path d="M120 180 Q140 140 200 130 Q260 140 280 180 Q290 240 270 280 Q200 300 130 280 Q110 240 120 180Z" fill="url(#clothg)"/>
    <path d="M150 180 Q170 160 200 155 Q230 160 250 180 Q255 210 245 235 Q200 250 155 235 Q145 210 150 180Z" fill="rgba(255,255,255,0.12)"/>
    <text x="200" y="210" text-anchor="middle" fill="#fff" font-family="Arial,sans-serif" font-size="12" font-weight="bold">MICROFIBER CLOTH</text>
    <text x="200" y="260" text-anchor="middle" fill="rgba(255,255,255,0.6)" font-family="Arial,sans-serif" font-size="28">🧹</text>
  </g>
</svg>
